<svg width="91" height="28" viewBox="0 0 91 28" fill="none" xmlns="http://www.w3.org/2000/svg">
<path d="M0 0H91V28H0V0Z" fill="#36C03C"/>
<path d="M37.1101 8.09091V19H34.8729L30.5316 12.7038H30.4624V19H27.8256V8.09091H30.0948L34.3881 14.3764H34.4787V8.09091H37.1101ZM38.768 19V8.09091H46.3746V10.2322H41.4047V12.4695H45.9857V14.6161H41.4047V16.8587H46.3746V19H38.768ZM50.6412 19L47.4665 8.09091H50.3802L52.0262 15.2393H52.1167L53.9971 8.09091H56.3728L58.2531 15.2553H58.3437L59.9949 8.09091H62.9033L59.7339 19H57.1931L55.2275 12.3842H55.1423L53.1768 19H50.6412Z" fill="white"/>
</svg>
