<svg width="126" height="123" viewBox="0 0 126 123" fill="none" xmlns="http://www.w3.org/2000/svg">
<g clip-path="url(#clip0_127_2)">
<path d="M125.794 55.5614C125.794 53.7496 124.556 52.1391 122.7 51.7365L111.152 48.9181L119.813 40.8658C121.051 39.6579 121.463 37.6448 120.432 36.0344L114.246 25.7676C113.421 24.1571 111.358 23.5532 109.709 23.9558L98.1604 27.1767L101.46 15.9034C101.872 14.0916 101.254 12.2799 99.6039 11.4746L89.0867 5.43534C87.437 4.6301 85.3748 4.83141 84.1375 6.03926L75.8887 14.4943L73.0016 3.22093C72.5892 1.40915 70.9394 0.201294 69.0835 0.201294H56.7103C54.8543 0.201294 53.2046 1.40915 52.7921 3.22093L49.9051 14.4943L41.6563 6.03926C40.419 4.83141 38.3568 4.42879 36.707 5.43534L26.1899 11.4746C24.5401 12.2799 23.9214 14.2929 24.3339 15.9034L27.6334 27.1767L16.0851 23.9558C14.2291 23.5532 12.3732 24.1571 11.5483 25.7676L5.3617 36.0344C4.53682 37.6448 4.74304 39.6579 5.98036 40.8658L14.6416 48.9181L3.09329 51.7365C1.23732 52.1391 0 53.7496 0 55.5614V67.4386C0 69.2504 1.23732 70.8609 3.09329 71.2635L14.6416 74.0818L5.98036 82.1342C4.74304 83.342 4.33061 85.3551 5.3617 86.9656L11.5483 97.2324C12.3732 98.8429 14.4354 99.4468 16.0851 99.0442L27.6334 95.8232L24.3339 107.097C23.9214 108.908 24.5401 110.72 26.1899 111.525L36.707 117.565C38.3568 118.37 40.419 118.169 41.6563 116.961L49.9051 108.506L52.7921 119.779C53.2046 121.591 54.8543 122.799 56.7103 122.799H69.0835C70.9394 122.799 72.5892 121.591 73.0016 119.779L75.8887 108.506L84.1375 116.961C85.3748 118.169 87.437 118.571 89.0867 117.565L99.6039 111.525C101.254 110.72 101.872 108.707 101.46 107.097L98.1604 95.8232L109.709 99.0442C111.565 99.4468 113.421 98.8429 114.246 97.2324L120.432 86.9656C121.257 85.3551 121.051 83.342 119.813 82.1342L111.152 74.0818L122.7 71.2635C124.556 70.8609 125.794 69.2504 125.794 67.4386V55.5614Z" fill="#FF7300"/>
<path d="M27.6334 27.1767L98.3666 96.2258L109.915 99.4468C111.771 99.8494 113.627 99.2455 114.452 97.635L120.638 87.3682C121.463 85.7578 121.257 83.7447 120.02 82.5368L111.358 74.4844L122.907 71.6661C124.763 71.2635 126 69.653 126 67.8412V55.964C126 54.1522 124.763 52.5417 122.907 52.1391L111.358 49.3208L120.02 41.2684C121.257 40.0605 121.669 38.0474 120.638 36.437L114.452 26.1702C113.627 24.5597 111.565 23.9558 109.915 24.3584L98.3666 27.5794L101.666 16.306C102.079 14.4943 101.46 12.6825 99.8101 11.8772L89.293 5.83796C87.6432 5.03272 85.581 5.23403 84.3437 6.44188L76.0949 14.8969L73.0016 3.22093C72.5892 1.40915 70.9394 0.201294 69.0835 0.201294H56.7103C54.8543 0.201294 53.2046 1.40915 52.7921 3.22093L49.9051 14.4943L41.6563 6.03926C40.419 4.83141 38.3568 4.42879 36.707 5.43534L26.1898 11.4746C24.5401 12.2799 23.9214 14.2929 24.3339 15.9034L27.6334 27.1767Z" fill="#FF3C00"/>
<path d="M46.3994 74.4844L32.5827 50.7299L28.0458 76.6988L72.7954 120.383C72.7954 120.182 72.7954 120.182 73.0017 119.98L75.8887 108.707L84.1375 117.162C85.3748 118.37 87.437 118.772 89.0868 117.766L99.6039 111.727C101.254 110.921 101.872 108.908 101.46 107.298L98.1604 96.0245L109.709 99.2455C111.358 99.6481 113.214 99.0442 114.246 97.4337L57.9476 49.9247L46.3994 74.4844Z" fill="#FF3C00"/>
<path d="M32.2188 75V56.0909H40.3807C41.7841 56.0909 43.0121 56.3464 44.0646 56.8572C45.1172 57.3681 45.9358 58.1037 46.5206 59.0639C47.1054 60.0241 47.3977 61.1752 47.3977 62.517C47.3977 63.8712 47.0961 65.013 46.4929 65.9425C45.8958 66.8719 45.0556 67.5736 43.9723 68.0476C42.8951 68.5215 41.6364 68.7585 40.196 68.7585H35.321V64.7699H39.1619C39.7652 64.7699 40.2791 64.696 40.7038 64.5483C41.1347 64.3944 41.464 64.1513 41.6918 63.8189C41.9257 63.4865 42.0426 63.0526 42.0426 62.517C42.0426 61.9754 41.9257 61.5353 41.6918 61.1967C41.464 60.852 41.1347 60.5997 40.7038 60.4396C40.2791 60.2734 39.7652 60.1903 39.1619 60.1903H37.3523V75H32.2188ZM43.2983 66.321L48.0256 75H42.4489L37.8324 66.321H43.2983ZM49.5859 75V56.0909H63.2138V60.2273H54.7195V63.4773H62.5121V67.6136H54.7195V70.8636H63.1768V75H49.5859ZM82.1206 56.0909V75H77.8365L71.0041 65.0653H70.8933V75H65.7598V56.0909H70.1177L76.8393 65.9886H76.987V56.0909H82.1206ZM84.0318 60.2273V56.0909H100.466V60.2273H94.7789V75H89.7193V60.2273H84.0318Z" fill="white"/>
</g>
<defs>
<clipPath id="clip0_127_2">
<rect width="126" height="123" fill="white"/>
</clipPath>
</defs>
</svg>
