<?xml version="1.0"?>
<svg width="64" height="80"
    xmlns="http://www.w3.org/2000/svg"
    xmlns:svg="http://www.w3.org/2000/svg" enable-background="new 0 0 64 64" version="1.1" xml:space="preserve">
    <g class="layer">
        <title>Layer 1</title>
        <g id="svg_1">
            <path d="m56.92,57.62c0.02,0.87 -0.54,1.64 -1.36,1.92c-0.04,0.01 -0.09,0.03 -0.13,0.04c-1.5,0.5 -2.97,0.99 -4.46,1.42c-1.21,0.34 -2.43,0.66 -3.65,0.94c-4.61,1.06 -9.29,1.65 -14.04,1.6c-0.32,0 -0.64,0 -0.96,-0.01c-1.66,-0.05 -3.31,-0.16 -4.94,-0.34c-0.87,-0.17 -1.74,-0.39 -2.61,-0.66c-2.35,-0.72 -4.61,-1.72 -6.94,-2.51c-0.11,-0.03 -0.21,-0.06 -0.32,-0.09c-1.63,-0.35 -3.26,-0.68 -4.89,-1.01c-0.42,-0.21 -0.83,-0.43 -1.25,-0.66c-0.52,-0.29 -0.97,-0.63 -1.36,-1.03c-0.35,-0.36 -0.65,-0.77 -0.91,-1.25c-2.01,-3.69 -2.24,-7.85 -1.92,-11.96c0.28,-3.58 0.48,-7.2 1.3,-10.71c0.76,-3.24 2.2,-6.23 2.76,-9.53c0.23,-1.33 0.44,-2.71 0.38,-4.06c-0.27,-5.77 2.39,-10.03 6.76,-13.46c3.26,-2.56 6.75,-4.67 10.87,-5.56c3.22,-0.69 6.02,-0.02 8.16,3.13c0.41,0.61 0.98,1.11 1.59,1.53c3.79,2.58 0.12,6.33 -1.16,8.94c-0.42,0.87 -0.83,1.74 -1.38,2.54c-0.64,0.94 -1.58,1.67 -2.42,2.47c-1.29,1.22 -3.11,1.21 -4.41,0.01c-0.73,-0.67 -1.1,-1.01 -1.36,-1.37c-0.65,-0.88 -1.67,-1.43 -2.77,-1.33c-3.12,0.28 -4.37,1.03 -3.38,4.41c0.67,2.29 1.46,4.55 2.27,6.8c0.71,1.95 1.4,4 1.63,6.07c0.18,1.53 -0.43,3.79 0.49,5.11c1.64,2.35 6.39,0.67 7.84,-0.18c1.68,-1 3.3,-2.09 5.04,-2.97c2.82,-1.42 5.99,-1.99 9.07,-1.16c1.55,0.42 3.01,1.16 4.32,2.09c0.88,0.62 1.84,1.09 2.84,1.48c0.01,0.01 0.02,0.01 0.02,0.01c0.78,0.31 1.3,1.04 1.3,1.88c-0.03,3.64 -0.1,13.68 -0.02,17.46z" fill="#000000" id="svg_2"/>
            <path d="m52.27,29.52c2.45,-0.77 3.84,-2.31 4.14,-4.57c0.37,-2.7 -0.47,-4.7 -2.49,-5.94c-0.71,-0.44 -1.48,-0.79 -2.23,-1.13c-0.4,-0.18 -0.78,-0.35 -1.14,-0.53c-0.24,-0.11 -0.48,-0.23 -0.72,-0.34c-0.67,-0.31 -1.3,-0.6 -1.89,-0.99c-0.84,-0.55 -1.14,-1.73 -0.74,-2.94c0.32,-0.95 0.97,-1.36 2.2,-1.38c1.19,0 2,0.55 2.35,1.57c0.1,0.32 0.16,0.67 0.21,1l0.01,0.06c0.03,0.14 0.05,0.28 0.08,0.42l0.03,0.14l4.28,0l0.01,-0.15c0.13,-1.15 -0.17,-2.55 -0.76,-3.55c-0.91,-1.54 -2.34,-2.47 -4.51,-2.93l-0.17,-0.04l0,-1.9l-2.61,0l0,1.77l-0.15,0.05c-0.24,0.07 -0.47,0.14 -0.69,0.21c-0.66,0.19 -1.27,0.38 -1.84,0.66c-1.79,0.9 -2.96,2.66 -3.12,4.71c-0.16,2.02 0.69,3.9 2.28,5.03c0.8,0.58 1.73,1 2.63,1.41c0.39,0.17 0.78,0.35 1.16,0.54c0.25,0.12 0.49,0.24 0.74,0.35l0.12,0.05c0.55,0.25 1.08,0.49 1.57,0.81c0.88,0.57 1.22,1.75 0.86,2.92c-0.3,0.95 -1.07,1.48 -2.23,1.51c-0.27,0.02 -0.56,0.02 -0.85,-0.01c-1.4,-0.1 -2.33,-1.01 -2.49,-2.42c-0.01,-0.11 -0.03,-0.21 -0.04,-0.32l-0.08,-0.55l-4.26,0l-0.02,0.16c-0.35,3.46 1.61,5.64 6,6.67l0.17,0.04l0,1.62l2.61,0l0,-1.64l0.47,-0.1c0.39,-0.08 0.75,-0.15 1.11,-0.27z" fill="#000000" id="svg_3"/>
        </g>
    </g>
</svg>