<?xml version="1.0"?>
<svg width="100" height="125"
    xmlns="http://www.w3.org/2000/svg"
    xmlns:svg="http://www.w3.org/2000/svg" enable-background="new 0 0 100 100" version="1.1" xml:space="preserve">
    <g class="layer">
        <title>Layer 1</title>
        <circle cx="26.9" cy="18.87" id="svg_1" r="7.55"/>
        <circle cx="71.73" cy="22.1" id="svg_2" r="7.55"/>
        <path d="m80.61,92.74l0.6,-33.78c3.37,-1.47 5.72,-4.83 5.72,-8.74c-1.08,-9.46 -4.46,-17.25 -8.95,-21.06c-1.67,1.48 -3.85,2.38 -6.25,2.38s-4.58,-0.9 -6.25,-2.38c-2.76,2.34 -5.1,6.19 -6.75,11c-2.62,-4.71 -7.41,-9.61 -15.84,-9.04l0.26,-1.03l-3.73,2.33l4.28,1.04l-0.52,-0.81c8.37,-0.5 12.74,4.87 14.93,9.49c-0.72,2.5 -1.26,5.21 -1.59,8.08c0,3.91 2.36,7.27 5.73,8.74l0.6,33.78l8.38,0l0,-29.21l1,0l0,29.21l8.38,0z" id="svg_3"/>
        <path d="m88.61,50.22l7.92,0l0,-4.91l-8.69,0c0.31,1.53 0.57,3.1 0.75,4.72l0.02,0.19z" id="svg_4"/>
        <path d="m51.82,27.8c-0.71,0 -1.36,-0.23 -1.82,-0.48l-0.33,1.28c0.41,0.24 1.13,0.44 1.86,0.47l0,1.05l1.08,0l0,-1.12c1.26,-0.22 1.96,-1.06 1.96,-2.04c0,-0.98 -0.53,-1.59 -1.84,-2.05c-0.93,-0.35 -1.32,-0.58 -1.32,-0.94c0,-0.31 0.23,-0.62 0.95,-0.62c0.79,0 1.29,0.25 1.58,0.37l0.32,-1.24c-0.36,-0.17 -0.86,-0.33 -1.6,-0.36l0,-0.97l-1.07,0l0,1.05c-1.18,0.23 -1.86,0.99 -1.86,1.95c0,1.07 0.8,1.62 1.98,2.01c0.81,0.28 1.16,0.54 1.16,0.96c0,0.44 -0.42,0.68 -1.05,0.68z" id="svg_5"/>
        <path d="m52.3,40.77c0,-0.38 -2.56,-0.69 -5.71,-0.69s-5.7,0.31 -5.7,0.69l0,1.33c0.24,0.29 2.51,0.59 5.7,0.59c3.19,0 5.47,-0.3 5.71,-0.59l0,-1.33z" id="svg_6"/>
        <path d="m45.32,46.47c0.08,0 0.16,0 0.24,0.01c0.04,0 0.08,0 0.12,0c0,0 0,0 0,0c0.3,0.01 0.6,0.01 0.91,0.01c3.15,0 5.71,-0.4 5.71,-0.89l0,-2.67c-1.27,0.45 -3.99,0.53 -5.71,0.53c-1.71,0 -4.44,-0.08 -5.7,-0.53l0,2.67c0,0.42 1.82,0.77 4.28,0.86c0,0 0,0 0,0c0.05,0.01 0.1,0.01 0.15,0.01z" id="svg_7"/>
        <path d="m47.46,54.33c0.44,0 0.9,-0.02 1.36,-0.05l-0.25,1.03l3.73,-2.34l-4.28,-1.04l0.52,0.82c-8.14,0.49 -12.49,-4.58 -14.75,-9.11l6.33,0l0,-1.27l0,-0.53l0,-1.07c0,-0.26 0.01,-0.59 0.66,-0.87c-1.63,-6.2 -4.33,-11.16 -7.63,-13.96c-1.67,1.47 -3.85,2.38 -6.25,2.38c-2.4,0 -4.58,-0.91 -6.25,-2.38c-3.95,3.35 -7.04,9.77 -8.46,17.7l19.97,0c2.28,4.86 6.78,10.69 15.3,10.69z" id="svg_8"/>
        <path d="m32.13,45.31l-28.66,0l0,4.91l32.22,0c-1.49,-1.52 -2.65,-3.23 -3.56,-4.91z" id="svg_9"/>
        <path d="m35.62,45.31c1.2,1.86 2.81,3.65 4.95,4.91l14.28,0l0.01,-0.19c0.19,-1.62 0.44,-3.19 0.76,-4.72l-2.55,0l0,0.29c0,0.45 0,1.66 -6.48,1.66c-0.31,0 -0.62,0 -0.93,-0.01l-0.52,-0.02c-5.02,-0.2 -5.02,-1.13 -5.02,-1.63l0,-0.29l-4.5,0z" id="svg_10"/>
    </g>
</svg>