<?xml version="1.0"?>
<svg width="512" height="640" xmlns="http://www.w3.org/2000/svg" xmlns:svg="http://www.w3.org/2000/svg">
 <title>Entrepreneur icon</title>
 <desc>Entrepreneur icon for website, application, printing, document, poster design, etc.</desc>
 <metadata>
 </metadata>
 <g class="layer">
  <title>Layer 1</title>
  <g id="svg_1">
   <path d="m184,291.89a72.09,72.09 0 0 1 -48,0l0,0.8l24,24l24,-24l0,-0.8z" id="svg_2"/>
   <polygon id="svg_3" points="184 315.313 175.648 323.666 184 325.754 184 315.313"/>
   <path d="m88,200a8,8 0 0 0 0,16l0,-16z" id="svg_4"/>
   <path d="m104,160l0,11.12l9.14,-15.24a8,8 0 0 1 6.86,-3.88l88,0a16.02,16.02 0 0 0 16,-16l0,-16l-96,0a24.03,24.03 0 0 0 -24,24l0,16z" id="svg_5"/>
   <path d="m80,288l40,0l0,-4.12a72.33,72.33 0 0 1 -31.54,-51.88l-0.46,0a23.89,23.89 0 0 1 -8,-1.38l0,57.38z" id="svg_6"/>
   <path d="m216,224l0,-21.78l-20.53,-34.22l-70.94,0l-20.53,34.22l0,21.78a56,56 0 1 0 112,0zm-28,-32a12,12 0 1 1 -12,12a12.01,12.01 0 0 1 12,-12zm-68,12a12,12 0 1 1 12,12a12.01,12.01 0 0 1 -12,-12zm11.56,42.66l8.88,-13.32a35.17,35.17 0 0 0 39.12,0l8.88,13.32a51.13,51.13 0 0 1 -56.88,0z" id="svg_7"/>
   <rect height="80" id="svg_8" width="48" x="240" y="32"/>
   <polygon id="svg_9" points="344.639 32 304 32 304 112 351.306 112 344.639 32"/>
   <path d="m368,136a24,24 0 0 0 48,0l0,-8l-48,0l0,8z" id="svg_10"/>
   <polygon id="svg_11" points="367.361 112 414.556 112 401.223 32 360.694 32 367.361 112"/>
   <polygon id="svg_12" points="430.777 112 477.754 112 457.754 32 417.444 32 430.777 112"/>
   <path d="m328,160a24.03,24.03 0 0 0 24,-24l0,-8l-48,0l0,8a24.03,24.03 0 0 0 24,24z" id="svg_13"/>
   <path d="m264,160a24.03,24.03 0 0 0 24,-24l0,-8l-48,0l0,8a24.03,24.03 0 0 0 24,24z" id="svg_14"/>
   <polygon id="svg_15" points="224 32 183.361 32 177.364 104 224 104 224 32"/>
   <path d="m161.31,104l6,-72l-40.53,0l-12.4,74.39a39.83,39.83 0 0 1 13.62,-2.39l33.31,0z" id="svg_16"/>
   <polygon id="svg_17" points="136 325.754 144.352 323.666 136 315.313 136 325.754"/>
   <path d="m194.93,471.06l38,8.94l15.07,0a24.04,24.04 0 0 0 22.62,-16l-45.7,0l-29.99,7.06z" id="svg_18"/>
   <rect height="16" id="svg_19" width="40" x="232" y="376"/>
   <path d="m48,438.73l0,17.27a24.03,24.03 0 0 0 24,24l15.07,0l135.1,-31.79a7.97,7.97 0 0 1 1.83,-0.21l48,0l0,-40l-47.31,0l-176.69,30.73z" id="svg_20"/>
   <path d="m232,200l0,16a8,8 0 0 0 0,-16z" id="svg_21"/>
   <polygon id="svg_22" points="95.309 408 48 408 48 422.489 113.31 411.13 95.309 408"/>
   <path d="m240,304l-40,0l0,32a8,8 0 0 1 -9.94,7.76l-22.06,-5.51l0,63.37l48,-8.35l0,-49.27l16,0l0,16l40,0l0,-24a32.04,32.04 0 0 0 -32,-32z" id="svg_23"/>
   <rect height="16" id="svg_24" width="192" x="288" y="400"/>
   <path d="m312,336l0,-128l-56,0a24.03,24.03 0 0 1 -24,24l-0.46,0a72.32,72.32 0 0 1 -31.54,51.88l0,4.12l40,0a48.05,48.05 0 0 1 48,48l24,0z" id="svg_25"/>
   <path d="m88,344l16,0l0,49.27l48,8.35l0,-63.37l-22.06,5.51a8,8 0 0 1 -9.94,-7.76l0,-32l-40,0a32.04,32.04 0 0 0 -32,32l0,24l40,0l0,-16zm32,16l16,0l0,16l-16,0l0,-16z" id="svg_26"/>
   <polygon id="svg_27" points="110.556 32 70.246 32 50.246 112 97.223 112 110.556 32"/>
   <path d="m64,200a8,8 0 0 1 5.88,-7.71a23.95,23.95 0 0 1 18.12,-8.29l0,-11.35a39.88,39.88 0 0 1 -40,-4.67l0,132.28a48.04,48.04 0 0 1 16,-9.51l0,-90.75z" id="svg_28"/>
   <rect height="16" id="svg_29" width="40" x="48" y="376"/>
   <path d="m432,128l0,8a24,24 0 0 0 48,0l0,-8l-48,0z" id="svg_30"/>
   <path d="m72,160a24.04,24.04 0 0 0 16,-6.12l0,-9.88a39.76,39.76 0 0 1 3.35,-16l-43.35,0l0,8a24.03,24.03 0 0 0 24,24z" id="svg_31"/>
   <path d="m424,159.97a39.96,39.96 0 0 1 -64,0a39.96,39.96 0 0 1 -64,0a39.96,39.96 0 0 1 -64,0l0,24.03a23.94,23.94 0 0 1 17.87,8l70.13,0a8,8 0 0 1 8,8l0,144a8,8 0 0 1 -8,8l-32,0l0,32l56,0l0,-184a8,8 0 0 1 8,-8l96,0a8,8 0 0 1 8,8l0,184l24,0l0,-216.02a39.94,39.94 0 0 1 -56,-8.01z" id="svg_32"/>
   <path d="m360,208l0,176l80,0l0,-176l-80,0zm64,112l-16,0l0,-48l16,0l0,48z" id="svg_33"/>
  </g>
 </g>
</svg>