<svg width="91" height="28" viewBox="0 0 91 28" fill="none" xmlns="http://www.w3.org/2000/svg">
<path d="M0 0H91V28H0V0Z" fill="#FFD335"/>
<path d="M34.4254 8.09091H37.0568V15.1275C37.0568 15.9407 36.8633 16.6491 36.4762 17.2528C36.0891 17.853 35.5494 18.3182 34.8569 18.6484C34.1644 18.9751 33.3601 19.1385 32.4439 19.1385C31.517 19.1385 30.7074 18.9751 30.0149 18.6484C29.3224 18.3182 28.7844 17.853 28.4009 17.2528C28.0174 16.6491 27.8256 15.9407 27.8256 15.1275V8.09091H30.4624V14.8984C30.4624 15.2749 30.544 15.6104 30.7074 15.9052C30.8743 16.1999 31.1069 16.4308 31.4052 16.5977C31.7035 16.7646 32.0497 16.848 32.4439 16.848C32.8381 16.848 33.1825 16.7646 33.4773 16.5977C33.7756 16.4308 34.0082 16.1999 34.1751 15.9052C34.342 15.6104 34.4254 15.2749 34.4254 14.8984V8.09091ZM44.6061 11.3615C44.5706 10.9709 44.4126 10.6673 44.132 10.4506C43.855 10.2305 43.4591 10.1204 42.9442 10.1204C42.6032 10.1204 42.3192 10.1648 42.0919 10.2536C41.8646 10.3423 41.6942 10.4648 41.5805 10.6211C41.4669 10.7738 41.4083 10.9496 41.4047 11.1484C41.3976 11.3118 41.4296 11.4556 41.5006 11.5799C41.5752 11.7042 41.6817 11.8143 41.8202 11.9102C41.9623 12.0025 42.1327 12.0842 42.3316 12.1552C42.5305 12.2262 42.7542 12.2884 43.0028 12.3416L43.9403 12.5547C44.48 12.6719 44.9559 12.8281 45.3678 13.0234C45.7833 13.2188 46.1313 13.4513 46.4118 13.7212C46.6959 13.9911 46.9108 14.3018 47.0564 14.6534C47.202 15.005 47.2765 15.3991 47.2801 15.8359C47.2765 16.5249 47.1025 17.1161 46.7581 17.6097C46.4136 18.1033 45.9182 18.4815 45.2719 18.7443C44.6292 19.0071 43.8532 19.1385 42.9442 19.1385C42.0315 19.1385 41.2361 19.0018 40.5578 18.7283C39.8795 18.4549 39.3522 18.0394 38.9758 17.4819C38.5993 16.9244 38.4058 16.2195 38.3952 15.3672H40.92C40.9413 15.7188 41.0354 16.0117 41.2023 16.2461C41.3692 16.4805 41.5983 16.658 41.8895 16.7788C42.1842 16.8995 42.5251 16.9599 42.9122 16.9599C43.2673 16.9599 43.5692 16.9119 43.8177 16.8161C44.0699 16.7202 44.2634 16.587 44.3983 16.4165C44.5333 16.2461 44.6025 16.0508 44.6061 15.8306C44.6025 15.6246 44.5386 15.4489 44.4143 15.3033C44.29 15.1541 44.0983 15.0263 43.839 14.9197C43.5834 14.8097 43.2567 14.7085 42.8589 14.6161L41.719 14.3498C40.7744 14.1332 40.0305 13.7834 39.4871 13.3004C38.9438 12.8139 38.6739 12.157 38.6775 11.3295C38.6739 10.6548 38.855 10.0636 39.2208 9.55575C39.5866 9.04794 40.0926 8.65199 40.7389 8.3679C41.3852 8.08381 42.1221 7.94176 42.9495 7.94176C43.7947 7.94176 44.528 8.08558 45.1494 8.37322C45.7744 8.65732 46.2591 9.05682 46.6036 9.57173C46.9481 10.0866 47.1238 10.6832 47.1309 11.3615H44.6061ZM48.6118 19V8.09091H56.2183V10.2322H51.2485V12.4695H55.8295V14.6161H51.2485V16.8587H56.2183V19H48.6118ZM61.9019 19H57.8696V8.09091H61.8966C63.0081 8.09091 63.9651 8.3093 64.7677 8.74609C65.5738 9.17933 66.1952 9.80433 66.632 10.6211C67.0688 11.4343 67.2872 12.4073 67.2872 13.5401C67.2872 14.6765 67.0688 15.6531 66.632 16.4698C66.1988 17.2866 65.5791 17.9134 64.773 18.3501C63.9669 18.7834 63.0099 19 61.9019 19ZM60.5063 16.7521H61.8007C62.4115 16.7521 62.9282 16.6491 63.3508 16.4432C63.7769 16.2337 64.0983 15.8945 64.3149 15.4258C64.5351 14.9535 64.6452 14.3249 64.6452 13.5401C64.6452 12.7553 64.5351 12.1303 64.3149 11.6651C64.0947 11.1964 63.7698 10.859 63.3401 10.6531C62.914 10.4435 62.3884 10.3388 61.7634 10.3388H60.5063V16.7521Z" fill="white"/>
</svg>
