<svg width="126" height="123" viewBox="0 0 126 123" fill="none" xmlns="http://www.w3.org/2000/svg">
<g clip-path="url(#clip0_127_13)">
<path d="M125.794 55.5614C125.794 53.7496 124.556 52.1391 122.7 51.7365L111.152 48.9181L119.813 40.8658C121.051 39.6579 121.463 37.6448 120.432 36.0344L114.246 25.7676C113.421 24.1571 111.358 23.5532 109.709 23.9558L98.1604 27.1767L101.46 15.9034C101.872 14.0916 101.254 12.2799 99.6039 11.4746L89.0867 5.43534C87.437 4.6301 85.3748 4.83141 84.1375 6.03926L75.8887 14.4943L73.0016 3.22093C72.5892 1.40915 70.9394 0.201294 69.0835 0.201294H56.7103C54.8543 0.201294 53.2046 1.40915 52.7921 3.22093L49.9051 14.4943L41.6563 6.03926C40.419 4.83141 38.3568 4.42879 36.707 5.43534L26.1899 11.4746C24.5401 12.2799 23.9214 14.2929 24.3339 15.9034L27.6334 27.1767L16.0851 23.9558C14.2291 23.5532 12.3732 24.1571 11.5483 25.7676L5.3617 36.0344C4.53682 37.6448 4.74304 39.6579 5.98036 40.8658L14.6416 48.9181L3.09329 51.7365C1.23732 52.1391 0 53.7496 0 55.5614V67.4386C0 69.2504 1.23732 70.8609 3.09329 71.2635L14.6416 74.0818L5.98036 82.1342C4.74304 83.342 4.33061 85.3551 5.3617 86.9656L11.5483 97.2324C12.3732 98.8429 14.4354 99.4468 16.0851 99.0442L27.6334 95.8232L24.3339 107.097C23.9214 108.908 24.5401 110.72 26.1899 111.525L36.707 117.565C38.3568 118.37 40.419 118.169 41.6563 116.961L49.9051 108.506L52.7921 119.779C53.2046 121.591 54.8543 122.799 56.7103 122.799H69.0835C70.9394 122.799 72.5892 121.591 73.0016 119.779L75.8887 108.506L84.1375 116.961C85.3748 118.169 87.437 118.571 89.0867 117.565L99.6039 111.525C101.254 110.72 101.872 108.707 101.46 107.097L98.1604 95.8232L109.709 99.0442C111.565 99.4468 113.421 98.8429 114.246 97.2324L120.432 86.9656C121.257 85.3551 121.051 83.342 119.813 82.1342L111.152 74.0818L122.7 71.2635C124.556 70.8609 125.794 69.2504 125.794 67.4386V55.5614Z" fill="#EBC84C"/>
<path d="M27.6334 27.1767L98.3666 96.2258L109.915 99.4468C111.771 99.8494 113.627 99.2455 114.452 97.635L120.638 87.3682C121.463 85.7578 121.257 83.7447 120.02 82.5368L111.358 74.4844L122.907 71.6661C124.763 71.2635 126 69.653 126 67.8412V55.964C126 54.1522 124.763 52.5417 122.907 52.1391L111.358 49.3208L120.02 41.2684C121.257 40.0605 121.669 38.0474 120.638 36.437L114.452 26.1702C113.627 24.5597 111.565 23.9558 109.915 24.3584L98.3666 27.5794L101.666 16.306C102.079 14.4943 101.46 12.6825 99.8101 11.8772L89.293 5.83796C87.6432 5.03272 85.581 5.23403 84.3437 6.44188L76.0949 14.8969L73.0016 3.22093C72.5892 1.40915 70.9394 0.201294 69.0835 0.201294H56.7103C54.8543 0.201294 53.2046 1.40915 52.7921 3.22093L49.9051 14.4943L41.6563 6.03926C40.419 4.83141 38.3568 4.42879 36.707 5.43534L26.1898 11.4746C24.5401 12.2799 23.9214 14.2929 24.3339 15.9034L27.6334 27.1767Z" fill="#FFD600"/>
<path d="M46.3994 74.4844L32.5827 50.7299L28.0458 76.6988L72.7954 120.383C72.7954 120.182 72.7954 120.182 73.0017 119.98L75.8887 108.707L84.1375 117.162C85.3748 118.37 87.437 118.772 89.0868 117.766L99.6039 111.727C101.254 110.921 101.872 108.908 101.46 107.298L98.1604 96.0245L109.709 99.2455C111.358 99.6481 113.214 99.0442 114.246 97.4337L57.9476 49.9247L46.3994 74.4844Z" fill="#FFD600"/>
<path d="M43.4091 56.0909H48.5426V68.2045C48.5426 69.6449 48.1979 70.8913 47.5085 71.9439C46.8253 72.9903 45.8712 73.7997 44.6463 74.3722C43.4214 74.9384 41.9995 75.2216 40.3807 75.2216C38.7495 75.2216 37.3215 74.9384 36.0966 74.3722C34.8717 73.7997 33.9176 72.9903 33.2344 71.9439C32.5573 70.8913 32.2188 69.6449 32.2188 68.2045V56.0909H37.3523V67.7614C37.3523 68.3461 37.4815 68.8693 37.7401 69.331C37.9986 69.7865 38.3556 70.1435 38.8111 70.402C39.2727 70.6605 39.7959 70.7898 40.3807 70.7898C40.9716 70.7898 41.4948 70.6605 41.9503 70.402C42.4058 70.1435 42.7628 69.7865 43.0213 69.331C43.2798 68.8693 43.4091 68.3461 43.4091 67.7614V56.0909ZM61.1756 62C61.1264 61.3845 60.8955 60.9044 60.4831 60.5597C60.0769 60.215 59.4583 60.0426 58.6273 60.0426C58.098 60.0426 57.664 60.1072 57.3255 60.2365C56.9931 60.3596 56.7469 60.5289 56.5868 60.7443C56.4268 60.9598 56.3437 61.206 56.3375 61.483C56.3252 61.7107 56.3652 61.9169 56.4576 62.1016C56.556 62.2801 56.7099 62.4432 56.9192 62.5909C57.1285 62.7325 57.3962 62.8617 57.7225 62.9787C58.0487 63.0956 58.4365 63.2003 58.8858 63.2926L60.437 63.625C61.4834 63.8466 62.379 64.139 63.1238 64.5021C63.8685 64.8653 64.4779 65.2931 64.9519 65.7855C65.4258 66.2718 65.7736 66.8196 65.9952 67.429C66.223 68.0384 66.3399 68.7031 66.3461 69.4233C66.3399 70.6667 66.0291 71.7192 65.4135 72.581C64.798 73.4427 63.9178 74.0982 62.7729 74.5476C61.6342 74.9969 60.2646 75.2216 58.6642 75.2216C57.0208 75.2216 55.5866 74.9785 54.3617 74.4922C53.1429 74.0059 52.195 73.258 51.5179 72.2486C50.847 71.233 50.5085 69.9342 50.5023 68.3523H55.3773C55.4081 68.9309 55.5527 69.4171 55.8113 69.8111C56.0698 70.205 56.4329 70.5036 56.9007 70.7067C57.3747 70.9098 57.9379 71.0114 58.5904 71.0114C59.1382 71.0114 59.5968 70.9437 59.9661 70.8082C60.3354 70.6728 60.6155 70.4851 60.8063 70.245C60.9971 70.005 61.0956 69.7311 61.1017 69.4233C61.0956 69.134 61.0002 68.8816 60.8155 68.6662C60.637 68.4446 60.3416 68.2476 59.9292 68.0753C59.5167 67.8968 58.9597 67.7306 58.258 67.5767L56.3745 67.1705C54.7002 66.8073 53.3799 66.201 52.4135 65.3516C51.4533 64.496 50.9763 63.3295 50.9824 61.8523C50.9763 60.652 51.2963 59.6025 51.9426 58.7038C52.5951 57.799 53.4969 57.0942 54.6479 56.5895C55.8051 56.0848 57.1316 55.8324 58.6273 55.8324C60.1538 55.8324 61.4741 56.0878 62.5882 56.5987C63.7024 57.1096 64.561 57.8298 65.1642 58.7592C65.7736 59.6825 66.0814 60.7628 66.0875 62H61.1756ZM68.2988 75V56.0909H81.9267V60.2273H73.4324V63.4773H81.225V67.6136H73.4324V70.8636H81.8897V75H68.2988ZM91.7482 75H84.4727V56.0909H91.6744C93.6194 56.0909 95.2998 56.4695 96.7156 57.2266C98.1374 57.9775 99.2331 59.0608 100.002 60.4766C100.778 61.8861 101.166 63.5758 101.166 65.5455C101.166 67.5152 100.781 69.2079 100.012 70.6236C99.2423 72.0331 98.1528 73.1165 96.7433 73.8736C95.3337 74.6245 93.6687 75 91.7482 75ZM89.6062 70.642H91.5636C92.4992 70.642 93.2963 70.4912 93.9549 70.1896C94.6197 69.888 95.1244 69.3679 95.4691 68.6293C95.82 67.8906 95.9954 66.8627 95.9954 65.5455C95.9954 64.2282 95.8169 63.2003 95.4599 62.4616C95.109 61.723 94.592 61.2029 93.9087 60.9013C93.2317 60.5997 92.4007 60.4489 91.4158 60.4489H89.6062V70.642Z" fill="white"/>
</g>
<defs>
<clipPath id="clip0_127_13">
<rect width="126" height="123" fill="white"/>
</clipPath>
</defs>
</svg>
