<?xml version="1.0"?>
<svg width="512" height="640" xmlns="http://www.w3.org/2000/svg" xmlns:svg="http://www.w3.org/2000/svg" enable-background="new 0 0 512 512" version="1.1" xml:space="preserve">
 <g class="layer">
  <title>Layer 1</title>
  <path d="m177.6,46.3c-36.8,0 -66.6,29.8 -66.6,66.6s29.8,66.6 66.6,66.6c36.8,0 66.6,-29.8 66.6,-66.6s-29.8,-66.6 -66.6,-66.6l0,0zm154.8,121.4l0,47.6l72.3,0l0,-47.6l-72.3,0zm0,-29.3c0,3.3 -2.7,6 -6,6c-3.3,0 -6,-2.7 -6,-6l0,-14.6c0,-15.7 5.2,-30.1 13.7,-40.6c18.9,-23.4 49.9,-23.4 68.8,0c8.4,10.5 13.7,24.9 13.7,40.6l0,14.6c0,3.3 -2.7,6 -6,6c-3.3,0 -6,-2.7 -6,-6l0,-14.6c0,-13 -4.2,-24.7 -11.1,-33.1c-14.1,-17.4 -36.1,-17.4 -50.1,0c-6.8,8.4 -11.1,20.1 -11.1,33.1l0,14.6l0.1,0zm1.1,142.2l-170.8,0l-22.1,185l214.9,0l-22,-185zm-59.8,-12l65.1,0c3.2,0 5.8,2.5 6,5.6l12.1,101.2l117.8,0l-21.9,-207.7l-36.1,0l0,53.6c0,3.3 -2.7,6 -6,6l-84.2,0c-3.3,0 -6,-2.7 -6,-6l0,-53.6l-36.1,0l-10.7,100.9zm7.8,53c0,-3.3 2.7,-6 6,-6c3.3,0 6,2.7 6,6l0,12.1c0,24.4 -20.9,43.5 -45.3,43.5c-24.5,0 -45.4,-19.2 -45.4,-43.5l0,-14c0,-3.3 2.7,-6 6,-6c3.3,0 6,2.7 6,6l0,14c0,17.8 15.4,31.5 33.4,31.5c17.9,0 33.3,-13.8 33.3,-31.5l0,-12.1zm-195.2,13.2l0,-43.7c0,-3.3 2.7,-6 6,-6c3.3,0 6,2.7 6,6l0,43.7l45.9,0l7.3,-60.9c0.4,-3.1 2.9,-5.3 6,-5.3l0,0l104.3,0l6.4,-60.6c-15,-8.7 -31.9,-13.3 -49.5,-13.3l-81.9,0c-54.6,0 -99.2,44.7 -99.2,99.2l0,40.9l48.7,0z" id="svg_1"/>
 </g>
</svg>